<svg width="73" height="51" viewBox="0 0 73 51" fill="none" xmlns="http://www.w3.org/2000/svg">
<g clip-path="url(#clip0_1_55)">
<path d="M45.1113 26.8087L33.8198 15.5393C33.6926 15.4121 33.5414 15.3111 33.3751 15.2423C33.2088 15.1734 33.0304 15.138 32.8503 15.138C32.6703 15.138 32.4919 15.1734 32.3256 15.2423C32.1592 15.3111 32.0081 15.4121 31.8809 15.5393L20.5885 26.8087C20.3963 26.9997 20.2653 27.2434 20.2122 27.5089C20.159 27.7743 20.186 28.0495 20.2899 28.2996C20.3937 28.5497 20.5696 28.7633 20.7953 28.9135C21.021 29.0636 21.2863 29.1434 21.5575 29.1428H29.1999V38.7053C29.2011 39.0672 29.3456 39.414 29.6021 39.67C29.8585 39.9259 30.206 40.0702 30.5687 40.0713H35.1312C35.4938 40.0702 35.8413 39.9259 36.0977 39.67C36.3542 39.414 36.4988 39.0672 36.4999 38.7053V29.1428H44.1423C44.4135 29.1434 44.6788 29.0636 44.9045 28.9135C45.1302 28.7633 45.3061 28.5497 45.41 28.2996C45.5138 28.0495 45.5408 27.7743 45.4877 27.5089C45.4345 27.2434 45.3035 26.9997 45.1113 26.8087ZM62.0152 19.1362C61.8901 17.3251 61.3782 15.5617 60.514 13.9643C59.6498 12.3669 58.4531 10.9726 57.0045 9.87479C55.5558 8.77702 53.8885 8.00125 52.1147 7.59955C50.3409 7.19786 48.5014 7.17954 46.7199 7.54583C44.3462 4.57228 41.1738 2.33414 37.5732 1.09284C33.9726 -0.148472 30.0925 -0.341714 26.386 0.535673C22.6794 1.41306 19.2995 3.32486 16.641 6.04779C13.9825 8.77072 12.1551 12.1924 11.3723 15.9131C7.45147 17.5044 4.20678 20.4064 2.19362 24.1223C0.180464 27.8382 -0.475982 32.137 0.336655 36.2827C1.14929 40.4284 3.38048 44.1633 6.64829 46.8481C9.91609 49.5329 14.0173 51.0006 18.2499 50.9999H56.5749C60.4544 51.0023 64.2096 49.6342 67.1751 47.1378C70.1406 44.6414 72.125 41.178 72.7768 37.3611C73.4286 33.5443 72.7056 29.6203 70.736 26.2845C68.7664 22.9487 65.6765 20.4164 62.0152 19.1362ZM56.5749 45.5356H18.2499C15.0129 45.5462 11.8926 44.3299 9.51955 42.1326C7.14651 39.9354 5.69771 36.9209 5.46595 33.6985C5.2342 30.4761 6.23676 27.2861 8.27103 24.7731C10.3053 22.2601 13.2196 20.6115 16.4249 20.1605V20.0356C16.4258 16.6611 17.6002 13.3915 19.7476 10.785C21.895 8.17841 24.8823 6.39654 28.1995 5.7435C31.5168 5.09047 34.9582 5.60676 37.9365 7.20425C40.9148 8.80174 43.2452 11.3814 44.5299 14.5028C45.842 13.3837 47.5089 12.7648 49.2347 12.7559C50.9606 12.747 52.6339 13.3486 53.9574 14.4541C55.281 15.5596 56.1694 17.0973 56.4648 18.7944C56.7602 20.4915 56.4436 22.2382 55.5712 23.7245C55.9047 23.6921 56.2398 23.6768 56.5749 23.6785C59.479 23.6785 62.2642 24.8299 64.3177 26.8794C66.3713 28.9289 67.5249 31.7086 67.5249 34.6071C67.5249 37.5055 66.3713 40.2852 64.3177 42.3347C62.2642 44.3842 59.479 45.5356 56.5749 45.5356Z" fill="#455A64"/>
</g>
<defs>
<clipPath id="clip0_1_55">
<rect width="73" height="51" fill="white"/>
</clipPath>
</defs>
</svg>
